<?xml version="1.0" encoding="utf-8"?>
<!-- Generator: Adobe Illustrator 19.1.0, SVG Export Plug-In . SVG Version: 6.00 Build 0)  -->
<svg version="1.1" id="Calque_1" xmlns="http://www.w3.org/2000/svg" xmlns:xlink="http://www.w3.org/1999/xlink" x="0px" y="0px"
	 viewBox="0 0 118 118" style="enable-background:new 0 0 118 118;" xml:space="preserve">
<style type="text/css">
	.st0{fill:#CE000F;}
	.st1{fill:#FFFFFF;}
</style>
<g>
	<path class="st0" d="M36.3,100.5c0.5,0.2,1.2-0.1,2-0.6c-1-0.6-2.1-1-3-1.4C35.5,99.4,35.9,100.4,36.3,100.5z"/>
	<path class="st0" d="M45.2,98.4c0.5,0.1,1.3,0,2.1-0.1c-1.5-0.8-3.2-1.1-4.6-1.6C43.5,97.5,44.3,98.2,45.2,98.4z"/>
	<path class="st0" d="M69.8,91.9c0.3,0,0.8,0,1.3-0.1c-1.4-0.4-2.8-0.7-3.9-1.1C68.1,91.2,68.9,91.8,69.8,91.9z"/>
	<path class="st0" d="M61.3,93.6c0.3,0,0.7,0,1.2-0.1c-1.3-0.4-2.6-0.7-3.6-1.2C59.6,93,60.4,93.5,61.3,93.6z"/>
	<path class="st0" d="M53.3,95.6c0.3,0,0.7,0,1.1-0.1c-1.4-0.6-3-0.9-4.1-1.4C51.3,94.9,52.3,95.5,53.3,95.6z"/>
	<path class="st0" d="M29.5,40.1c0.3-0.3,0.6-0.7,0.8-1.1c-1.4,0.8-2.6,1.8-3.8,2.4C27.8,41,28.8,40.7,29.5,40.1z"/>
	<path class="st0" d="M12.3,74.2c0.5-0.3,0.8-1.1,1-2.1c-1.2,0.4-2.4,1-3.4,1.5C10.8,74,11.8,74.5,12.3,74.2z"/>
	<path class="st0" d="M17,65.3c0.5-0.3,1-1,1.4-1.8c-1.7,0.7-3.3,1.8-4.7,2.7C15.1,66,16.2,65.9,17,65.3z"/>
	<path class="st0" d="M53.8,19.9c0.4,0.3,1.2,0.5,1.9,0.7c-1.1-1.2-2.5-2.2-3.7-3.2C52.5,18.5,53,19.4,53.8,19.9z"/>
	<path class="st0" d="M20.6,56.5c0.3-0.2,0.5-0.6,0.7-1c-1.6,0.8-3,1.8-4.2,2.4C18.5,57.6,19.8,57.3,20.6,56.5z"/>
	<path class="st0" d="M62.3,20.4c0.3,0.1,0.6,0.2,1.1,0.3c-1.1-1.1-2.4-2-3.3-2.9C60.8,18.9,61.4,19.9,62.3,20.4z"/>
	<path class="st0" d="M46.8,18.8c-0.7-0.9-1.5-1.7-2.3-2.5c-0.1,0.9-0.2,1.9,0.2,2.2C45.1,18.9,45.9,18.9,46.8,18.8z"/>
	<path class="st0" d="M24.8,48.4c0.3-0.2,0.5-0.6,0.8-1c-1.3,0.8-2.5,1.7-3.6,2.1C23.1,49.3,24.1,49.1,24.8,48.4z"/>
	<path class="st0" d="M83.5,45.2c0.4,0.1,0.9,0.1,1.4,0c-1.5-0.6-3-1.1-4.1-1.7C81.7,44.3,82.6,45,83.5,45.2z"/>
	<path class="st0" d="M55.8,49.8c0.5,0.2,1.4,0.2,2.3,0.2c-1.5-1-3.4-1.6-4.9-2.2C54,48.6,54.8,49.4,55.8,49.8z"/>
	<path class="st0" d="M65,47.6c0.3,0.1,0.8,0.1,1.2,0c-1.5-0.8-3.2-1.4-4.4-2C62.9,46.5,63.8,47.3,65,47.6z"/>
	<path class="st0" d="M74,46.3c0.3,0.1,0.8,0.1,1.3,0c-1.4-0.6-2.8-1.1-3.9-1.7C72.2,45.4,73,46,74,46.3z"/>
	<path class="st0" d="M79,23.1c0.3,0.2,0.7,0.3,1.2,0.3c-1.1-0.9-2.3-1.7-3.2-2.5C77.6,21.8,78.2,22.6,79,23.1z"/>
	<path class="st0" d="M36.5,69.8c0.5,0.3,1.3,0.2,2.3,0c-0.9-0.9-1.9-1.7-2.9-2.4C36,68.4,36.1,69.5,36.5,69.8z"/>
	<path class="st0" d="M59,0.5C26.7,0.5,0.5,26.7,0.5,59s26.2,58.5,58.5,58.5c32.3,0,58.5-26.2,58.5-58.5S91.3,0.5,59,0.5z"/>
	<path class="st0" d="M56.1,69.2c0.3,0.1,0.7,0.2,1.2,0.2c-1.4-1-3-1.8-4-2.7C54.1,67.8,55,68.7,56.1,69.2z"/>
	<path class="st0" d="M46.6,69.9c0.5,0.3,1.3,0.4,2.2,0.5c-1.4-1.2-3.1-2.1-4.5-2.9C45,68.5,45.7,69.4,46.6,69.9z"/>
	<path class="st0" d="M65.2,69.2c0.3,0.1,0.8,0.2,1.3,0.2c-1.3-0.8-2.6-1.5-3.6-2.2C63.6,68.1,64.3,68.8,65.2,69.2z"/>
	<path class="st0" d="M70.4,21.5c0.3,0.2,0.7,0.3,1.1,0.4c-1.1-0.9-2.2-1.7-2.9-2.4C69.2,20.3,69.7,21.1,70.4,21.5z"/>
	<path class="st0" d="M74.8,69.6c0.4,0.1,0.9,0.2,1.4,0.2c-1.4-0.8-2.8-1.5-3.8-2.3C73.1,68.4,73.8,69.2,74.8,69.6z"/>
	<path class="st0" d="M45.7,51.2c0.5,0.2,1.4,0,2.3-0.4c-1-0.7-2.2-1.3-3.2-1.9C45,49.8,45.3,50.9,45.7,51.2z"/>
</g>
<g>
	<path class="st1" d="M46.8,77.7c-1.3,0-2.7-0.1-4-0.4c-1.3,0.3-2.7,0.4-4,0.4c-13-0.2-25.9-16.3-20.9-28.7
		c5-12.4,16.5-11.6,21.4-8.6c1.4,0.9,2.6,1.3,3.6,1.6c0.9-0.2,2.1-0.7,3.6-1.6c4.8-2.9,16.4-3.7,21.4,8.6
		C72.7,61.3,59.7,77.5,46.8,77.7z"/>
	<path class="st1" d="M29.3,29c2.2,1.1,12.7,9.7,12.7,9.7c-1-1.3-2.8-3.9-3.5-5.4c-0.9-2.2-3.1-6.2-3.1-6.2s3.8,1.2,5.8,5.6
		c0.8,1.8,1.2,3.2,1.3,4.4c0.8-2,2.6-5.3,6.2-7.3c5.7-3.2,7.8-3.4,7.8-3.4s-4.9,2.5-8.8,7.2v0c3.5-1.6,8.3-2.2,14.5-3.5
		c7-1.5,8.3-5.1,8.3-5.1s0.2,2.3-1.4,3.9c-1.6,1.6-4.7,3.4-11.9,5c-5.2,1.1-10.3,3.5-14.9,6.1c-0.6-0.9-10.1-5.9-10.9-6.5
		c-7-5-16.6-8.3-16.6-8.3S20.4,24.6,29.3,29z"/>
</g>
<g>
	<path class="st1" d="M90.6,97.9c-0.9,0-1.8-0.1-2.7-0.3c-0.9,0.2-1.8,0.3-2.7,0.3c-8.7-0.1-17.4-11-14.1-19.3
		c3.4-8.3,11.1-7.8,14.4-5.8c1,0.6,1.8,0.9,2.4,1c0.6-0.1,1.4-0.5,2.4-1c3.3-2,11-2.5,14.4,5.8C108,86.9,99.3,97.8,90.6,97.9z"/>
	<path class="st1" d="M78.8,65.2c1.5,0.7,8.5,6.6,8.6,6.5c-0.7-0.9-1.9-2.6-2.3-3.7c-0.6-1.5-2.1-4.2-2.1-4.2s2.5,0.8,3.9,3.7
		c0.5,1.2,0.8,2.2,0.9,2.9c0.5-1.4,1.8-3.6,4.2-4.9c3.8-2.1,5.3-2.3,5.3-2.3S94,65,91.3,68.2v0c2.4-1,5.6-1.5,9.8-2.3
		c4.7-1,5.6-3.4,5.6-3.4s0.1,1.5-0.9,2.6c-1.1,1.1-3.1,2.3-8,3.3c-3.5,0.8-7,2.4-10,4.1c-0.4-0.6-6.8-4-7.3-4.3
		c-4.7-3.3-11.1-5.6-11.1-5.6S72.8,62.2,78.8,65.2z"/>
</g>
</svg>
